<svg xmlns="http://www.w3.org/2000/svg" width="45.44" height="45.44" viewBox="0 0 45.44 45.44">
  <g id="educating" transform="translate(-967.829 -959.16)">
    <g id="Ellipse_154" data-name="Ellipse 154" transform="translate(967.829 959.16)" fill="none" stroke="#fff" stroke-width="4">
      <ellipse cx="22.72" cy="22.72" rx="22.72" ry="22.72" stroke="none"/>
      <ellipse cx="22.72" cy="22.72" rx="20.72" ry="20.72" fill="none"/>
    </g>
    <g id="noun_teaching_281223" transform="translate(980.28 971.308)">
      <g id="Group_69" data-name="Group 69" transform="translate(0 0)">
        <g id="Group_68" data-name="Group 68">
          <path id="Path_536" data-name="Path 536" d="M194.06,65.531l-.394-3.674.228.513a1.515,1.515,0,0,0,2.809.354l3.9-4.956a1.537,1.537,0,0,0,.2-1.38l-.2-.488,3.25-3.749a.4.4,0,0,0-.042-.57.407.407,0,0,0-.569.038l-3.231,3.728-.662-.093a1.548,1.548,0,0,0-1.3.531l-2.171,2.778-1.1-2.854a2.541,2.541,0,0,0-2.2-1.516h-7.19a2.541,2.541,0,0,0-2.2,1.508l-2.736,7.126a1.536,1.536,0,0,0,.217,1.377l.165.2a1.539,1.539,0,0,0,1.3.5l.259-.041a1.545,1.545,0,0,0,1.084-.883l.816-2.125-.394,3.674Zm.743.81h1.057a.4.4,0,0,1,.409.4v.817a.405.405,0,0,1-.4.4H182.1a.4.4,0,0,1-.4-.4v-.817a.4.4,0,0,1,.409-.4h12.7Zm-5.823-13.362a3.239,3.239,0,1,0-3.239-3.239A3.239,3.239,0,0,0,188.979,52.979Z" transform="translate(-180.375 -46.5)" fill="#fff" fill-rule="evenodd"/>
        </g>
      </g>
    </g>
  </g>
</svg>
