<svg xmlns="http://www.w3.org/2000/svg" width="45.44" height="45.44" viewBox="0 0 45.44 45.44">
  <g id="traveling" transform="translate(-967.1 -717.1)">
    <g id="air-transport" transform="matrix(0.966, -0.259, 0.259, 0.966, 973.078, 735.82)">
      <path id="Path_531" data-name="Path 531" d="M30.748,2.869c0,5.319-25.642,11.19-27.584,11.19-1.089,0-2.324-.251-2.324-1.254,0-.335.387-.82,1.066-1.4h0L.106,8.2A.822.822,0,0,1,.517,7.036l.309-.124A2.055,2.055,0,0,1,2.551,7l3.268,1.73c1.272-.755,2.716-1.545,4.237-2.323L3.688,2.28A.822.822,0,0,1,3.7.894L4.219.567A3.7,3.7,0,0,1,7.13.122L17.723,2.917C21.026,1.606,24.012.711,25.78.711c.472,0,.945.013,1.4.045L23.982,2.2l-.077,1.076,4.938-2.27C30.027,1.288,30.748,1.815,30.748,2.869ZM17.861,12.05l3.951,4.489a.822.822,0,0,0,.963.2L23.3,16.5a2.466,2.466,0,0,0,1.41-2.523l-.495-4.23a.411.411,0,0,0-.545-.34l-5.643,1.988A.411.411,0,0,0,17.861,12.05Z" transform="translate(0 0)" fill="#fff"/>
    </g>
    <g id="Ellipse_150" data-name="Ellipse 150" transform="translate(967.1 717.1)" fill="none" stroke="#fff" stroke-width="4">
      <ellipse cx="22.72" cy="22.72" rx="22.72" ry="22.72" stroke="none"/>
      <ellipse cx="22.72" cy="22.72" rx="20.72" ry="20.72" fill="none"/>
    </g>
  </g>
</svg>
